<svg xmlns="http://www.w3.org/2000/svg" xmlns:xlink="http://www.w3.org/1999/xlink" width="1500" zoomAndPan="magnify" viewBox="0 0 1125 1124.99995" height="1500" preserveAspectRatio="xMidYMid meet" version="1.0"><defs><g/><clipPath id="b40ca6e065"><path d="M 150 378.585938 L 559 378.585938 L 559 743 L 150 743 Z M 150 378.585938 " clip-rule="nonzero"/></clipPath><clipPath id="f7998029a2"><path d="M 558.210938 488.691406 C 562.164062 507.34375 548.035156 523.789062 530.074219 523.789062 C 520.441406 523.789062 511.9375 519.050781 506.710938 511.785156 C 504.535156 508.757812 500.859375 507.152344 497.113281 507.152344 L 422.980469 507.152344 C 416.257812 507.152344 410.820312 512.605469 410.820312 519.3125 L 410.820312 681.027344 C 410.820312 684.773438 412.425781 688.449219 415.457031 690.625 C 422.71875 695.851562 427.460938 704.351562 427.460938 713.984375 C 427.460938 731.941406 411.011719 746.070312 392.355469 742.113281 C 381.640625 739.851562 372.964844 731.28125 370.578125 720.585938 C 367.875 708.425781 372.859375 697.210938 381.605469 690.800781 C 384.8125 688.449219 386.484375 684.527344 386.484375 680.539062 L 386.484375 494.996094 C 386.484375 488.273438 391.9375 482.835938 398.644531 482.835938 L 496.625 482.835938 C 500.597656 482.835938 504.515625 481.164062 506.886719 477.960938 C 513.316406 469.214844 524.535156 464.234375 536.675781 466.933594 C 547.355469 469.300781 555.945312 477.976562 558.210938 488.691406 Z M 172.996094 435.457031 C 185.15625 438.15625 196.375 433.175781 202.785156 424.433594 C 205.136719 421.226562 209.058594 419.554688 213.046875 419.554688 L 496.625 419.554688 C 500.597656 419.554688 504.515625 421.226562 506.886719 424.433594 C 513.316406 433.175781 524.535156 438.15625 536.675781 435.457031 C 547.355469 433.089844 555.945312 424.398438 558.210938 413.683594 C 562.164062 395.027344 548.035156 378.585938 530.074219 378.585938 C 520.441406 378.585938 511.9375 383.324219 506.710938 390.585938 C 504.535156 393.617188 500.859375 395.222656 497.113281 395.222656 L 212.558594 395.222656 C 208.816406 395.222656 205.136719 393.617188 202.960938 390.585938 C 197.75 383.324219 189.234375 378.585938 179.617188 378.585938 C 161.636719 378.585938 147.507812 395.027344 151.460938 413.683594 C 153.742188 424.398438 162.316406 433.070312 172.996094 435.457031 Z M 327.839844 690.625 C 324.808594 688.449219 323.207031 684.773438 323.207031 681.027344 L 323.207031 494.996094 C 323.207031 488.273438 317.753906 482.835938 311.046875 482.835938 L 213.046875 482.835938 C 209.074219 482.835938 205.15625 481.164062 202.785156 477.960938 C 196.359375 469.214844 185.136719 464.234375 172.996094 466.933594 C 162.316406 469.300781 153.726562 477.996094 151.460938 488.707031 C 147.507812 507.363281 161.636719 523.804688 179.597656 523.804688 C 189.234375 523.804688 197.734375 519.066406 202.960938 511.804688 C 205.136719 508.773438 208.816406 507.171875 212.558594 507.171875 L 286.691406 507.171875 C 293.414062 507.171875 298.851562 512.621094 298.851562 519.328125 L 298.851562 680.558594 C 298.851562 684.527344 297.179688 688.449219 293.972656 690.816406 C 285.226562 697.242188 280.246094 708.460938 282.945312 720.601562 C 285.3125 731.28125 294.007812 739.867188 304.722656 742.132812 C 323.382812 746.085938 339.828125 731.960938 339.828125 714 C 339.84375 704.351562 335.105469 695.851562 327.839844 690.625 Z M 379.183594 463.207031 L 489.097656 463.207031 C 495.824219 463.207031 501.257812 457.753906 501.257812 451.046875 C 501.257812 444.324219 495.804688 438.890625 489.097656 438.890625 L 220.574219 438.890625 C 213.847656 438.890625 208.414062 444.339844 208.414062 451.046875 C 208.414062 457.769531 213.867188 463.207031 220.574219 463.207031 L 330.488281 463.207031 C 337.214844 463.207031 342.648438 468.65625 342.648438 475.363281 L 342.648438 676.585938 C 342.648438 683.308594 348.101562 688.742188 354.808594 688.742188 C 361.535156 688.742188 366.96875 683.292969 366.96875 676.585938 L 366.96875 475.382812 C 367.003906 468.65625 372.457031 463.207031 379.183594 463.207031 Z M 379.183594 463.207031 " clip-rule="nonzero"/></clipPath><linearGradient x1="1135.498645" gradientTransform="matrix(0.174219, 0, 0, 0.174187, 150.799777, 378.585963)" y1="-82.456603" x2="1297.514228" gradientUnits="userSpaceOnUse" y2="2185.776913" id="f827b289d1"><stop stop-opacity="1" stop-color="rgb(15.299988%, 66.699219%, 88.198853%)" offset="0"/><stop stop-opacity="1" stop-color="rgb(15.299988%, 66.699219%, 88.198853%)" offset="0.03125"/><stop stop-opacity="1" stop-color="rgb(15.299988%, 66.693115%, 88.194275%)" offset="0.046875"/><stop stop-opacity="1" stop-color="rgb(15.312195%, 66.342163%, 87.942505%)" offset="0.0507813"/><stop stop-opacity="1" stop-color="rgb(15.324402%, 65.995789%, 87.695312%)" offset="0.0546875"/><stop stop-opacity="1" stop-color="rgb(15.336609%, 65.649414%, 87.446594%)" offset="0.0585937"/><stop stop-opacity="1" stop-color="rgb(15.350342%, 65.30304%, 87.199402%)" offset="0.0625"/><stop stop-opacity="1" stop-color="rgb(15.362549%, 64.955139%, 86.950684%)" offset="0.0664063"/><stop stop-opacity="1" stop-color="rgb(15.374756%, 64.608765%, 86.703491%)" offset="0.0703125"/><stop stop-opacity="1" stop-color="rgb(15.386963%, 64.26239%, 86.454773%)" offset="0.0742187"/><stop stop-opacity="1" stop-color="rgb(15.39917%, 63.916016%, 86.207581%)" offset="0.078125"/><stop stop-opacity="1" stop-color="rgb(15.411377%, 63.568115%, 85.958862%)" offset="0.0820313"/><stop stop-opacity="1" stop-color="rgb(15.42511%, 63.221741%, 85.71167%)" offset="0.0859375"/><stop stop-opacity="1" stop-color="rgb(15.437317%, 62.875366%, 85.462952%)" offset="0.0898438"/><stop stop-opacity="1" stop-color="rgb(15.449524%, 62.528992%, 85.215759%)" offset="0.09375"/><stop stop-opacity="1" stop-color="rgb(15.461731%, 62.182617%, 84.967041%)" offset="0.0976562"/><stop stop-opacity="1" stop-color="rgb(15.475464%, 61.836243%, 84.718323%)" offset="0.101562"/><stop stop-opacity="1" stop-color="rgb(15.487671%, 61.488342%, 84.469604%)" offset="0.105469"/><stop stop-opacity="1" stop-color="rgb(15.499878%, 61.141968%, 84.222412%)" offset="0.109375"/><stop stop-opacity="1" stop-color="rgb(15.512085%, 60.795593%, 83.973694%)" offset="0.113281"/><stop stop-opacity="1" stop-color="rgb(15.524292%, 60.449219%, 83.726501%)" offset="0.117188"/><stop stop-opacity="1" stop-color="rgb(15.536499%, 60.101318%, 83.477783%)" offset="0.121094"/><stop stop-opacity="1" stop-color="rgb(15.550232%, 59.754944%, 83.230591%)" offset="0.125"/><stop stop-opacity="1" stop-color="rgb(15.562439%, 59.408569%, 82.981873%)" offset="0.128906"/><stop stop-opacity="1" stop-color="rgb(15.574646%, 59.062195%, 82.73468%)" offset="0.132812"/><stop stop-opacity="1" stop-color="rgb(15.586853%, 58.71582%, 82.485962%)" offset="0.136719"/><stop stop-opacity="1" stop-color="rgb(15.600586%, 58.369446%, 82.23877%)" offset="0.140625"/><stop stop-opacity="1" stop-color="rgb(15.612793%, 58.021545%, 81.990051%)" offset="0.144531"/><stop stop-opacity="1" stop-color="rgb(15.625%, 57.675171%, 81.741333%)" offset="0.148438"/><stop stop-opacity="1" stop-color="rgb(15.637207%, 57.328796%, 81.492615%)" offset="0.152344"/><stop stop-opacity="1" stop-color="rgb(15.65094%, 56.982422%, 81.245422%)" offset="0.15625"/><stop stop-opacity="1" stop-color="rgb(15.663147%, 56.634521%, 80.996704%)" offset="0.160156"/><stop stop-opacity="1" stop-color="rgb(15.675354%, 56.288147%, 80.749512%)" offset="0.164062"/><stop stop-opacity="1" stop-color="rgb(15.687561%, 55.941772%, 80.500793%)" offset="0.167969"/><stop stop-opacity="1" stop-color="rgb(15.699768%, 55.595398%, 80.253601%)" offset="0.171875"/><stop stop-opacity="1" stop-color="rgb(15.711975%, 55.249023%, 80.004883%)" offset="0.175781"/><stop stop-opacity="1" stop-color="rgb(15.725708%, 54.902649%, 79.75769%)" offset="0.179687"/><stop stop-opacity="1" stop-color="rgb(15.737915%, 54.554749%, 79.508972%)" offset="0.183594"/><stop stop-opacity="1" stop-color="rgb(15.750122%, 54.208374%, 79.26178%)" offset="0.1875"/><stop stop-opacity="1" stop-color="rgb(15.762329%, 53.862%, 79.013062%)" offset="0.191406"/><stop stop-opacity="1" stop-color="rgb(15.776062%, 53.515625%, 78.764343%)" offset="0.195312"/><stop stop-opacity="1" stop-color="rgb(15.788269%, 53.167725%, 78.515625%)" offset="0.199219"/><stop stop-opacity="1" stop-color="rgb(15.800476%, 52.82135%, 78.268433%)" offset="0.203125"/><stop stop-opacity="1" stop-color="rgb(15.812683%, 52.474976%, 78.019714%)" offset="0.207031"/><stop stop-opacity="1" stop-color="rgb(15.82489%, 52.128601%, 77.772522%)" offset="0.210937"/><stop stop-opacity="1" stop-color="rgb(15.837097%, 51.780701%, 77.523804%)" offset="0.214844"/><stop stop-opacity="1" stop-color="rgb(15.85083%, 51.434326%, 77.276611%)" offset="0.21875"/><stop stop-opacity="1" stop-color="rgb(15.863037%, 51.087952%, 77.027893%)" offset="0.222656"/><stop stop-opacity="1" stop-color="rgb(15.875244%, 50.741577%, 76.780701%)" offset="0.226563"/><stop stop-opacity="1" stop-color="rgb(15.887451%, 50.395203%, 76.531982%)" offset="0.230469"/><stop stop-opacity="1" stop-color="rgb(15.901184%, 50.048828%, 76.28479%)" offset="0.234375"/><stop stop-opacity="1" stop-color="rgb(15.913391%, 49.700928%, 76.036072%)" offset="0.238281"/><stop stop-opacity="1" stop-color="rgb(15.925598%, 49.354553%, 75.787354%)" offset="0.242187"/><stop stop-opacity="1" stop-color="rgb(15.937805%, 49.008179%, 75.538635%)" offset="0.246094"/><stop stop-opacity="1" stop-color="rgb(15.950012%, 48.661804%, 75.291443%)" offset="0.25"/><stop stop-opacity="1" stop-color="rgb(15.962219%, 48.313904%, 75.042725%)" offset="0.253906"/><stop stop-opacity="1" stop-color="rgb(15.975952%, 47.967529%, 74.795532%)" offset="0.257812"/><stop stop-opacity="1" stop-color="rgb(15.988159%, 47.621155%, 74.546814%)" offset="0.261719"/><stop stop-opacity="1" stop-color="rgb(16.000366%, 47.27478%, 74.299622%)" offset="0.265625"/><stop stop-opacity="1" stop-color="rgb(16.012573%, 46.928406%, 74.050903%)" offset="0.269531"/><stop stop-opacity="1" stop-color="rgb(16.026306%, 46.582031%, 73.803711%)" offset="0.273438"/><stop stop-opacity="1" stop-color="rgb(16.038513%, 46.234131%, 73.554993%)" offset="0.277344"/><stop stop-opacity="1" stop-color="rgb(16.05072%, 45.887756%, 73.3078%)" offset="0.28125"/><stop stop-opacity="1" stop-color="rgb(16.062927%, 45.541382%, 73.059082%)" offset="0.285156"/><stop stop-opacity="1" stop-color="rgb(16.07666%, 45.195007%, 72.81189%)" offset="0.289062"/><stop stop-opacity="1" stop-color="rgb(16.088867%, 44.847107%, 72.563171%)" offset="0.292969"/><stop stop-opacity="1" stop-color="rgb(16.101074%, 44.500732%, 72.314453%)" offset="0.296875"/><stop stop-opacity="1" stop-color="rgb(16.113281%, 44.154358%, 72.065735%)" offset="0.300781"/><stop stop-opacity="1" stop-color="rgb(16.125488%, 43.807983%, 71.818542%)" offset="0.304688"/><stop stop-opacity="1" stop-color="rgb(16.137695%, 43.461609%, 71.569824%)" offset="0.308594"/><stop stop-opacity="1" stop-color="rgb(16.151428%, 43.115234%, 71.322632%)" offset="0.3125"/><stop stop-opacity="1" stop-color="rgb(16.163635%, 42.767334%, 71.073914%)" offset="0.316406"/><stop stop-opacity="1" stop-color="rgb(16.175842%, 42.420959%, 70.826721%)" offset="0.320312"/><stop stop-opacity="1" stop-color="rgb(16.188049%, 42.074585%, 70.578003%)" offset="0.324219"/><stop stop-opacity="1" stop-color="rgb(16.201782%, 41.72821%, 70.330811%)" offset="0.328125"/><stop stop-opacity="1" stop-color="rgb(16.213989%, 41.38031%, 70.082092%)" offset="0.332031"/><stop stop-opacity="1" stop-color="rgb(16.226196%, 41.033936%, 69.8349%)" offset="0.335938"/><stop stop-opacity="1" stop-color="rgb(16.238403%, 40.687561%, 69.586182%)" offset="0.339844"/><stop stop-opacity="1" stop-color="rgb(16.25061%, 40.341187%, 69.337463%)" offset="0.34375"/><stop stop-opacity="1" stop-color="rgb(16.262817%, 39.994812%, 69.088745%)" offset="0.347656"/><stop stop-opacity="1" stop-color="rgb(16.27655%, 39.648438%, 68.841553%)" offset="0.351562"/><stop stop-opacity="1" stop-color="rgb(16.288757%, 39.300537%, 68.592834%)" offset="0.355469"/><stop stop-opacity="1" stop-color="rgb(16.300964%, 38.954163%, 68.345642%)" offset="0.359375"/><stop stop-opacity="1" stop-color="rgb(16.313171%, 38.607788%, 68.096924%)" offset="0.363281"/><stop stop-opacity="1" stop-color="rgb(16.326904%, 38.261414%, 67.849731%)" offset="0.367187"/><stop stop-opacity="1" stop-color="rgb(16.339111%, 37.913513%, 67.601013%)" offset="0.371094"/><stop stop-opacity="1" stop-color="rgb(16.351318%, 37.567139%, 67.353821%)" offset="0.375"/><stop stop-opacity="1" stop-color="rgb(16.363525%, 37.220764%, 67.105103%)" offset="0.378906"/><stop stop-opacity="1" stop-color="rgb(16.375732%, 36.87439%, 66.85791%)" offset="0.382812"/><stop stop-opacity="1" stop-color="rgb(16.387939%, 36.528015%, 66.609192%)" offset="0.386719"/><stop stop-opacity="1" stop-color="rgb(16.401672%, 36.181641%, 66.360474%)" offset="0.390625"/><stop stop-opacity="1" stop-color="rgb(16.413879%, 35.83374%, 66.111755%)" offset="0.394531"/><stop stop-opacity="1" stop-color="rgb(16.426086%, 35.487366%, 65.864563%)" offset="0.398438"/><stop stop-opacity="1" stop-color="rgb(16.438293%, 35.140991%, 65.615845%)" offset="0.402344"/><stop stop-opacity="1" stop-color="rgb(16.452026%, 34.794617%, 65.368652%)" offset="0.40625"/><stop stop-opacity="1" stop-color="rgb(16.464233%, 34.446716%, 65.119934%)" offset="0.410156"/><stop stop-opacity="1" stop-color="rgb(16.47644%, 34.100342%, 64.872742%)" offset="0.414062"/><stop stop-opacity="1" stop-color="rgb(16.488647%, 33.753967%, 64.624023%)" offset="0.417969"/><stop stop-opacity="1" stop-color="rgb(16.50238%, 33.407593%, 64.376831%)" offset="0.421875"/><stop stop-opacity="1" stop-color="rgb(16.514587%, 33.061218%, 64.128113%)" offset="0.425781"/><stop stop-opacity="1" stop-color="rgb(16.526794%, 32.714844%, 63.88092%)" offset="0.429688"/><stop stop-opacity="1" stop-color="rgb(16.539001%, 32.366943%, 63.632202%)" offset="0.433594"/><stop stop-opacity="1" stop-color="rgb(16.551208%, 32.020569%, 63.38501%)" offset="0.4375"/><stop stop-opacity="1" stop-color="rgb(16.563416%, 31.674194%, 63.136292%)" offset="0.441406"/><stop stop-opacity="1" stop-color="rgb(16.577148%, 31.32782%, 62.887573%)" offset="0.445312"/><stop stop-opacity="1" stop-color="rgb(16.589355%, 30.979919%, 62.638855%)" offset="0.449219"/><stop stop-opacity="1" stop-color="rgb(16.601562%, 30.633545%, 62.391663%)" offset="0.453125"/><stop stop-opacity="1" stop-color="rgb(16.61377%, 30.28717%, 62.142944%)" offset="0.457031"/><stop stop-opacity="1" stop-color="rgb(16.627502%, 29.940796%, 61.895752%)" offset="0.460937"/><stop stop-opacity="1" stop-color="rgb(16.639709%, 29.594421%, 61.647034%)" offset="0.464844"/><stop stop-opacity="1" stop-color="rgb(16.651917%, 29.248047%, 61.399841%)" offset="0.46875"/><stop stop-opacity="1" stop-color="rgb(16.664124%, 28.900146%, 61.151123%)" offset="0.472656"/><stop stop-opacity="1" stop-color="rgb(16.676331%, 28.553772%, 60.903931%)" offset="0.476562"/><stop stop-opacity="1" stop-color="rgb(16.688538%, 28.207397%, 60.655212%)" offset="0.480469"/><stop stop-opacity="1" stop-color="rgb(16.702271%, 27.861023%, 60.40802%)" offset="0.484375"/><stop stop-opacity="1" stop-color="rgb(16.714478%, 27.513123%, 60.159302%)" offset="0.488281"/><stop stop-opacity="1" stop-color="rgb(16.726685%, 27.166748%, 59.910583%)" offset="0.492188"/><stop stop-opacity="1" stop-color="rgb(16.738892%, 26.820374%, 59.661865%)" offset="0.496094"/><stop stop-opacity="1" stop-color="rgb(16.752625%, 26.473999%, 59.414673%)" offset="0.5"/><stop stop-opacity="1" stop-color="rgb(16.764832%, 26.127625%, 59.165955%)" offset="0.503906"/><stop stop-opacity="1" stop-color="rgb(16.777039%, 25.78125%, 58.918762%)" offset="0.507812"/><stop stop-opacity="1" stop-color="rgb(16.789246%, 25.43335%, 58.670044%)" offset="0.511719"/><stop stop-opacity="1" stop-color="rgb(16.801453%, 25.086975%, 58.422852%)" offset="0.515625"/><stop stop-opacity="1" stop-color="rgb(16.81366%, 24.740601%, 58.174133%)" offset="0.519531"/><stop stop-opacity="1" stop-color="rgb(16.827393%, 24.394226%, 57.926941%)" offset="0.523437"/><stop stop-opacity="1" stop-color="rgb(16.8396%, 24.046326%, 57.678223%)" offset="0.527344"/><stop stop-opacity="1" stop-color="rgb(16.851807%, 23.699951%, 57.43103%)" offset="0.53125"/><stop stop-opacity="1" stop-color="rgb(16.864014%, 23.353577%, 57.182312%)" offset="0.535156"/><stop stop-opacity="1" stop-color="rgb(16.877747%, 23.007202%, 56.933594%)" offset="0.539062"/><stop stop-opacity="1" stop-color="rgb(16.888428%, 22.703552%, 56.715393%)" offset="0.542969"/><stop stop-opacity="1" stop-color="rgb(16.899109%, 22.399902%, 56.498718%)" offset="0.546875"/><stop stop-opacity="1" stop-color="rgb(16.899109%, 22.399902%, 56.498718%)" offset="0.5625"/><stop stop-opacity="1" stop-color="rgb(16.899109%, 22.399902%, 56.498718%)" offset="0.625"/><stop stop-opacity="1" stop-color="rgb(16.899109%, 22.399902%, 56.498718%)" offset="0.75"/><stop stop-opacity="1" stop-color="rgb(16.899109%, 22.399902%, 56.498718%)" offset="0.92543"/><stop stop-opacity="1" stop-color="rgb(16.899109%, 22.399902%, 56.498718%)" offset="1"/></linearGradient></defs><g clip-path="url(#b40ca6e065)"><g clip-path="url(#f7998029a2)"><path fill="url(#f827b289d1)" d="M 147.507812 378.585938 L 147.507812 746.085938 L 562.164062 746.085938 L 562.164062 378.585938 Z M 147.507812 378.585938 " fill-rule="nonzero"/></g></g><g fill="#2089c6" fill-opacity="1"><g transform="translate(436.022155, 712.087508)"><g/></g></g><g fill="#2089c6" fill-opacity="1"><g transform="translate(491.805333, 712.087508)"><g><path d="M 76.078125 3.734375 C 115.0625 3.734375 144.234375 -24.96875 144.234375 -63.015625 C 144.234375 -101.0625 115.0625 -129.53125 76.078125 -129.53125 C 37.109375 -129.53125 7.9375 -101.0625 7.9375 -63.015625 C 7.9375 -24.96875 37.109375 3.734375 76.078125 3.734375 Z M 76.078125 -28.46875 C 56.484375 -28.46875 42.484375 -42.484375 42.484375 -63.015625 C 42.484375 -83.328125 56.484375 -97.5625 76.078125 -97.5625 C 95.6875 -97.5625 109.6875 -83.328125 109.6875 -63.015625 C 109.6875 -42.484375 95.6875 -28.46875 76.078125 -28.46875 Z M 76.078125 -28.46875 "/></g></g></g><g fill="#36489b" fill-opacity="1"><g transform="translate(638.144154, 715.683222)"><g><path d="M 103.71875 -211.765625 C 138.09375 -211.765625 164.332031 -202.878906 182.4375 -185.109375 C 200.539062 -167.347656 209.59375 -140.941406 209.59375 -105.890625 C 209.59375 -70.929688 200.539062 -44.539062 182.4375 -26.71875 C 164.332031 -8.90625 138.09375 0 103.71875 0 L 27.515625 0 L 27.515625 -211.765625 Z M 101.25 -35.203125 C 123.070312 -35.203125 139.390625 -40.773438 150.203125 -51.921875 C 161.023438 -63.078125 166.4375 -81.066406 166.4375 -105.890625 C 166.4375 -130.703125 161.023438 -148.6875 150.203125 -159.84375 C 139.390625 -171 123.070312 -176.578125 101.25 -176.578125 L 69.390625 -176.578125 L 69.390625 -35.203125 Z M 101.25 -35.203125 "/></g></g></g><g fill="#2089c6" fill-opacity="1"><g transform="translate(862.317839, 717.868858)"><g><path d="M 79.515625 3.09375 C 120.640625 3.09375 151.328125 -27.21875 151.328125 -67.5625 C 151.328125 -107.703125 120.640625 -138 79.515625 -138 C 38.21875 -138 7.328125 -107.515625 7.328125 -67.5625 C 7.328125 -27.40625 38.21875 3.09375 79.515625 3.09375 Z M 79.515625 -24.515625 C 55.390625 -24.515625 37.0625 -43.234375 37.0625 -67.5625 C 37.0625 -91.875 55.390625 -110.40625 79.515625 -110.40625 C 103.65625 -110.40625 121.59375 -92.0625 121.59375 -67.5625 C 121.59375 -43.046875 103.65625 -24.515625 79.515625 -24.515625 Z M 79.515625 -24.515625 "/></g></g></g></svg>