<?xml version="1.0" encoding="UTF-8"?>
<!DOCTYPE svg PUBLIC "-//W3C//DTD SVG 1.1//EN" "http://www.w3.org/Graphics/SVG/1.1/DTD/svg11.dtd">
<svg xmlns="http://www.w3.org/2000/svg" version="1.1" width="1171px" height="498px" style="shape-rendering:geometricPrecision; text-rendering:geometricPrecision; image-rendering:optimizeQuality; fill-rule:evenodd; clip-rule:evenodd" xmlns:xlink="http://www.w3.org/1999/xlink">
<g><path style="opacity:1" fill="#36ace1" d="M 89.5,27.5 C 62.4517,29.1701 35.4517,31.1701 8.5,33.5C 16.5089,11.4887 32.1755,2.32205 55.5,6C 65.7918,9.29345 74.1251,15.2934 80.5,24C 83.4588,25.6043 86.4588,26.7709 89.5,27.5 Z"/></g>
<g><path style="opacity:1" fill="#329cd6" d="M 546.5,24.5 C 550.168,29.8503 551.835,35.8503 551.5,42.5C 550.71,41.3915 550.21,40.0581 550,38.5C 456.58,45.6373 363.08,52.4706 269.5,59C 334.832,59.5 400.166,59.6667 465.5,59.5C 467.735,59.2053 469.735,59.5386 471.5,60.5C 343.166,60.3333 214.833,60.5 86.5,61C 83.5544,61.8061 80.8877,63.1395 78.5,65C 66.4509,80.9355 50.7842,85.9355 31.5,80C 23.0434,76.3732 16.7101,70.5398 12.5,62.5C 16.3864,60.725 20.7197,59.8916 25.5,60C 198.413,47.8039 371.246,35.3039 544,22.5C 544.708,23.3805 545.542,24.0472 546.5,24.5 Z"/></g>
<g><path style="opacity:1" fill="#28a5dd" d="M 89.5,27.5 C 152.167,27.5 214.833,27.5 277.5,27.5C 187.98,34.2994 98.3138,40.9661 8.5,47.5C 8.5,49.1667 8.5,50.8333 8.5,52.5C 7.22988,46.2962 7.22988,39.9629 8.5,33.5C 35.4517,31.1701 62.4517,29.1701 89.5,27.5 Z"/></g>
<g><path style="opacity:1" fill="#2a9fd9" d="M 546.5,24.5 C 545.542,24.0472 544.708,23.3805 544,22.5C 371.246,35.3039 198.413,47.8039 25.5,60C 20.7197,59.8916 16.3864,60.725 12.5,62.5C 10.2057,59.6305 8.87234,56.2971 8.5,52.5C 8.5,50.8333 8.5,49.1667 8.5,47.5C 98.3138,40.9661 187.98,34.2994 277.5,27.5C 341.501,27.6667 405.501,27.5 469.5,27C 476.723,26.115 482.056,22.4483 485.5,16C 506.053,-0.15935 525.553,1.00732 544,19.5C 545.094,21.0779 545.928,22.7446 546.5,24.5 Z"/></g>
<g><path style="opacity:1" fill="#2893d0" d="M 551.5,42.5 C 551.877,47.4526 551.211,52.1193 549.5,56.5C 549.5,55.5 549.5,54.5 549.5,53.5C 521.304,54.8473 493.304,56.8473 465.5,59.5C 400.166,59.6667 334.832,59.5 269.5,59C 363.08,52.4706 456.58,45.6373 550,38.5C 550.21,40.0581 550.71,41.3915 551.5,42.5 Z"/></g>
<g><path style="opacity:1" fill="#318ecc" d="M 549.5,56.5 C 540.632,77.2706 524.965,85.4372 502.5,81C 492.868,78.0149 485.201,72.3482 479.5,64C 476.924,62.5437 474.258,61.377 471.5,60.5C 469.735,59.5386 467.735,59.2053 465.5,59.5C 493.304,56.8473 521.304,54.8473 549.5,53.5C 549.5,54.5 549.5,55.5 549.5,56.5 Z"/></g>
<g><path style="opacity:1" fill="#308cca" d="M 463.5,86.5 C 432.498,86.3334 401.498,86.5 370.5,87C 277.167,93.6667 183.833,100.333 90.5,107C 88.563,107.122 87.2297,107.955 86.5,109.5C 81.8227,99.0572 84.8227,91.2239 95.5,86C 218.334,85.1673 341.001,85.334 463.5,86.5 Z"/></g>
<g><path style="opacity:1" fill="#2885c6" d="M 463.5,86.5 C 464.492,86.3284 465.158,86.6618 465.5,87.5C 340.3,95.7999 215.3,104.8 90.5,114.5C 88.4689,113.461 87.1355,111.795 86.5,109.5C 87.2297,107.955 88.563,107.122 90.5,107C 183.833,100.333 277.167,93.6667 370.5,87C 401.498,86.5 432.498,86.3334 463.5,86.5 Z"/></g>
<g><path style="opacity:1" fill="#2f83c4" d="M 465.5,87.5 C 467.679,87.84 469.512,88.84 471,90.5C 473.287,93.0722 474.453,96.0722 474.5,99.5C 391.155,105.096 307.822,110.929 224.5,117C 233.343,117.17 242.01,117.67 250.5,118.5C 198.832,118.667 147.166,118.5 95.5,118C 93.4156,117.303 91.7489,116.136 90.5,114.5C 215.3,104.8 340.3,95.7999 465.5,87.5 Z"/></g>
<g><path style="opacity:1" fill="#538bc7" d="M 474.5,99.5 C 475.837,108.389 472.17,114.555 463.5,118C 411.833,118.333 360.167,118.667 308.5,119C 303.09,120.743 299.256,124.243 297,129.5C 296.833,221.334 296.333,313.001 295.5,404.5C 295.5,356.5 295.5,308.5 295.5,260.5C 295.5,255.833 295.5,251.167 295.5,246.5C 295.5,236.5 295.5,226.5 295.5,216.5C 295.5,207.167 295.5,197.833 295.5,188.5C 295.5,178.167 295.5,167.833 295.5,157.5C 295.5,148.167 295.5,138.833 295.5,129.5C 284.862,130.546 274.195,131.212 263.5,131.5C 263.5,140.833 263.5,150.167 263.5,159.5C 263.5,169.833 263.5,180.167 263.5,190.5C 263.5,199.833 263.5,209.167 263.5,218.5C 263.5,228.5 263.5,238.5 263.5,248.5C 263.5,253.167 263.5,257.833 263.5,262.5C 263.5,309.5 263.5,356.5 263.5,403.5C 262.667,312.334 262.167,221.001 262,129.5C 259.945,123.944 256.111,120.277 250.5,118.5C 242.01,117.67 233.343,117.17 224.5,117C 307.822,110.929 391.155,105.096 474.5,99.5 Z"/></g>
<g><path style="opacity:1" fill="#4485c4" d="M 223.5,144.5 C 175.832,144.333 128.166,144.5 80.5,145C 56.4534,146.598 32.4534,148.432 8.5,150.5C 16.5339,127.645 32.5339,118.478 56.5,123C 66.132,125.985 73.7986,131.652 79.5,140C 81.2746,141.439 83.2746,142.439 85.5,143C 131.668,143.167 177.668,143.667 223.5,144.5 Z"/></g>
<g><path style="opacity:1" fill="#2967b1" d="M 545.5,139.5 C 549.128,144.112 551.128,149.446 551.5,155.5C 475.483,161.073 399.483,166.739 323.5,172.5C 322.505,166.872 322.171,161.206 322.5,155.5C 396.888,150.591 471.221,145.258 545.5,139.5 Z"/></g>
<g><path style="opacity:1" fill="#2a73b9" d="M 223.5,144.5 C 227.165,144.502 230.165,145.835 232.5,148.5C 158.488,153.429 84.4885,158.596 10.5,164C 8.89339,165.049 8.22672,166.549 8.5,168.5C 7.19426,162.599 7.19426,156.599 8.5,150.5C 32.4534,148.432 56.4534,146.598 80.5,145C 128.166,144.5 175.832,144.333 223.5,144.5 Z"/></g>
<g><path style="opacity:1" fill="#3d75b9" d="M 545.5,139.5 C 471.221,145.258 396.888,150.591 322.5,155.5C 324.313,148.912 328.646,145.079 335.5,144C 381.5,143.667 427.5,143.333 473.5,143C 475.246,142.529 476.913,141.862 478.5,141C 493.053,121.489 511.386,116.823 533.5,127C 538.72,130.086 542.72,134.253 545.5,139.5 Z"/></g>
<g><path style="opacity:1" fill="#296fb6" d="M 295.5,157.5 C 284.871,158.64 274.204,159.307 263.5,159.5C 263.5,150.167 263.5,140.833 263.5,131.5C 274.195,131.212 284.862,130.546 295.5,129.5C 295.5,138.833 295.5,148.167 295.5,157.5 Z"/></g>
<g><path style="opacity:1" fill="#2a6db5" d="M 232.5,148.5 C 234.562,150.41 236.062,152.743 237,155.5C 237.5,163.827 237.666,172.16 237.5,180.5C 236.662,180.158 236.328,179.492 236.5,178.5C 236.666,172.824 236.499,167.157 236,161.5C 165.583,167.018 95.0831,172.185 24.5,177C 20.0442,176.898 16.0442,177.732 12.5,179.5C 10,176.34 8.6667,172.673 8.5,168.5C 8.22672,166.549 8.89339,165.049 10.5,164C 84.4885,158.596 158.488,153.429 232.5,148.5 Z"/></g>
<g><path style="opacity:1" fill="#3966af" d="M 322.5,155.5 C 322.171,161.206 322.505,166.872 323.5,172.5C 399.483,166.739 475.483,161.073 551.5,155.5C 552.509,161.427 551.842,167.094 549.5,172.5C 549.649,171.448 549.483,170.448 549,169.5C 520.914,171.971 492.747,174.137 464.5,176C 467.365,176.183 470.031,176.683 472.5,177.5C 436.832,177.333 401.165,177.5 365.5,178C 360.226,180.437 356.56,184.271 354.5,189.5C 343.827,190.072 333.16,190.739 322.5,191.5C 322.5,199.167 322.5,206.833 322.5,214.5C 322.5,224.5 322.5,234.5 322.5,244.5C 322.5,249.167 322.5,253.833 322.5,258.5C 322.832,309.336 322.499,360.003 321.5,410.5C 321.167,325.332 321.501,240.332 322.5,155.5 Z"/></g>
<g><path style="opacity:1" fill="#376db4" d="M 236.5,178.5 C 224.474,178.907 212.474,179.74 200.5,181C 201.252,181.671 201.586,182.504 201.5,183.5C 199.264,181.107 196.597,179.273 193.5,178C 157.5,177.333 121.5,177.333 85.5,178C 83.7536,178.471 82.087,179.138 80.5,180C 65.5235,199.997 46.8569,204.33 24.5,193C 19.2126,189.552 15.2126,185.052 12.5,179.5C 16.0442,177.732 20.0442,176.898 24.5,177C 95.0831,172.185 165.583,167.018 236,161.5C 236.499,167.157 236.666,172.824 236.5,178.5 Z"/></g>
<g><path style="opacity:1" fill="#38499b" d="M 694.5,172.5 C 735.168,172.333 775.835,172.5 816.5,173C 844.106,174.475 869.106,183.142 891.5,199C 895.766,202.619 899.766,206.452 903.5,210.5C 903.427,212.027 904.094,213.027 905.5,213.5C 912.788,220.717 918.621,229.05 923,238.5C 925.141,243.756 926.974,249.09 928.5,254.5C 928.41,257.152 929.076,259.485 930.5,261.5C 930.41,264.152 931.076,266.485 932.5,268.5C 940.302,305.62 938.468,342.287 927,378.5C 910.8,418.683 881.3,442.849 838.5,451C 825.963,453.554 813.296,454.72 800.5,454.5C 765.167,454.5 729.833,454.5 694.5,454.5C 694.5,360.5 694.5,266.5 694.5,172.5 Z M 750.5,219.5 C 770.864,219.116 791.197,219.616 811.5,221C 823.179,222.5 834.179,226 844.5,231.5C 844.973,232.906 845.973,233.573 847.5,233.5C 847.973,234.906 848.973,235.573 850.5,235.5C 851.585,237.587 853.251,238.92 855.5,239.5C 869.345,255.844 876.845,274.844 878,296.5C 879.796,317.141 878.129,337.474 873,357.5C 870.687,364.122 867.853,370.455 864.5,376.5C 863.094,376.973 862.427,377.973 862.5,379.5C 861.5,379.833 860.833,380.5 860.5,381.5C 859.094,381.973 858.427,382.973 858.5,384.5C 857.167,385.167 856.167,386.167 855.5,387.5C 853.251,388.08 851.585,389.413 850.5,391.5C 848.973,391.427 847.973,392.094 847.5,393.5C 841.713,397.06 835.713,400.06 829.5,402.5C 826.848,402.41 824.515,403.076 822.5,404.5C 813.558,405.961 804.558,406.961 795.5,407.5C 780.5,407.5 765.5,407.5 750.5,407.5C 750.5,344.833 750.5,282.167 750.5,219.5 Z"/></g>
<g><path style="opacity:1" fill="#2962ad" d="M 295.5,157.5 C 295.5,167.833 295.5,178.167 295.5,188.5C 284.805,188.788 274.138,189.454 263.5,190.5C 263.5,180.167 263.5,169.833 263.5,159.5C 274.204,159.307 284.871,158.64 295.5,157.5 Z"/></g>
<g><path style="opacity:1" fill="#335da9" d="M 549.5,172.5 C 546.246,183.592 539.246,191.425 528.5,196C 507.853,203.006 491.186,197.673 478.5,180C 476.512,179.062 474.512,178.228 472.5,177.5C 470.031,176.683 467.365,176.183 464.5,176C 492.747,174.137 520.914,171.971 549,169.5C 549.483,170.448 549.649,171.448 549.5,172.5 Z"/></g>
<g><path style="opacity:1" fill="#496eb2" d="M 236.5,178.5 C 236.328,179.492 236.662,180.158 237.5,180.5C 237.5,191.5 237.5,202.5 237.5,213.5C 236.509,206.687 236.175,199.687 236.5,192.5C 226.156,193.025 215.823,193.691 205.5,194.5C 205.5,203.833 205.5,213.167 205.5,222.5C 205.5,232.5 205.5,242.5 205.5,252.5C 205.5,257.167 205.5,261.833 205.5,266.5C 205.832,314.67 205.499,362.67 204.5,410.5C 204.667,336.833 204.5,263.166 204,189.5C 203.427,187.359 202.594,185.359 201.5,183.5C 201.586,182.504 201.252,181.671 200.5,181C 212.474,179.74 224.474,178.907 236.5,178.5 Z"/></g>
<g><path style="opacity:1" fill="#3659a6" d="M 354.5,189.5 C 354.5,263.167 354.5,336.833 354.5,410.5C 353.501,359.336 353.168,308.003 353.5,256.5C 353.5,251.833 353.5,247.167 353.5,242.5C 353.5,232.5 353.5,222.5 353.5,212.5C 343.119,212.646 332.786,213.313 322.5,214.5C 322.5,206.833 322.5,199.167 322.5,191.5C 333.16,190.739 343.827,190.072 354.5,189.5 Z"/></g>
<g><path style="opacity:1" fill="#2a56a5" d="M 295.5,188.5 C 295.5,197.833 295.5,207.167 295.5,216.5C 284.813,216.882 274.146,217.549 263.5,218.5C 263.5,209.167 263.5,199.833 263.5,190.5C 274.138,189.454 284.805,188.788 295.5,188.5 Z"/></g>
<g><path style="opacity:1" fill="#2b56a4" d="M 237.5,213.5 C 237.5,229.167 237.5,244.833 237.5,260.5C 236.521,257.375 236.187,254.042 236.5,250.5C 236.5,240.5 236.5,230.5 236.5,220.5C 226.163,221.119 215.83,221.786 205.5,222.5C 205.5,213.167 205.5,203.833 205.5,194.5C 215.823,193.691 226.156,193.025 236.5,192.5C 236.175,199.687 236.509,206.687 237.5,213.5 Z"/></g>
<g><path style="opacity:0.741" fill="#a7acd3" d="M 903.5,210.5 C 904.906,210.973 905.573,211.973 905.5,213.5C 904.094,213.027 903.427,212.027 903.5,210.5 Z"/></g>
<g><path style="opacity:1" fill="#2a499c" d="M 353.5,242.5 C 343.17,243.214 332.837,243.881 322.5,244.5C 322.5,234.5 322.5,224.5 322.5,214.5C 332.786,213.313 343.119,212.646 353.5,212.5C 353.5,222.5 353.5,232.5 353.5,242.5 Z"/></g>
<g><path style="opacity:1" fill="#2a499c" d="M 295.5,216.5 C 295.5,226.5 295.5,236.5 295.5,246.5C 284.854,247.451 274.187,248.118 263.5,248.5C 263.5,238.5 263.5,228.5 263.5,218.5C 274.146,217.549 284.813,216.882 295.5,216.5 Z"/></g>
<g><path style="opacity:0.435" fill="#b4b8d9" d="M 844.5,231.5 C 846.027,231.427 847.027,232.094 847.5,233.5C 845.973,233.573 844.973,232.906 844.5,231.5 Z"/></g>
<g><path style="opacity:0.502" fill="#aaafd4" d="M 847.5,233.5 C 849.027,233.427 850.027,234.094 850.5,235.5C 848.973,235.573 847.973,234.906 847.5,233.5 Z"/></g>
<g><path style="opacity:0.855" fill="#a6abd2" d="M 850.5,235.5 C 852.749,236.08 854.415,237.413 855.5,239.5C 853.251,238.92 851.585,237.587 850.5,235.5 Z"/></g>
<g><path style="opacity:1" fill="#2a499c" d="M 236.5,250.5 C 226.214,251.687 215.881,252.354 205.5,252.5C 205.5,242.5 205.5,232.5 205.5,222.5C 215.83,221.786 226.163,221.119 236.5,220.5C 236.5,230.5 236.5,240.5 236.5,250.5 Z"/></g>
<g><path style="opacity:1" fill="#2b4196" d="M 353.5,242.5 C 353.5,247.167 353.5,251.833 353.5,256.5C 343.17,257.214 332.837,257.881 322.5,258.5C 322.5,253.833 322.5,249.167 322.5,244.5C 332.837,243.881 343.17,243.214 353.5,242.5 Z"/></g>
<g><path style="opacity:1" fill="#2b4196" d="M 295.5,246.5 C 295.5,251.167 295.5,255.833 295.5,260.5C 284.854,261.451 274.187,262.118 263.5,262.5C 263.5,257.833 263.5,253.167 263.5,248.5C 274.187,248.118 284.854,247.451 295.5,246.5 Z"/></g>
<g><path style="opacity:1" fill="#2d4296" d="M 236.5,250.5 C 236.187,254.042 236.521,257.375 237.5,260.5C 237.5,310.167 237.5,359.833 237.5,409.5C 236.501,361.336 236.168,313.003 236.5,264.5C 226.214,265.687 215.881,266.354 205.5,266.5C 205.5,261.833 205.5,257.167 205.5,252.5C 215.881,252.354 226.214,251.687 236.5,250.5 Z"/></g>
<g><path style="opacity:1" fill="#2e3a91" d="M 353.5,256.5 C 353.168,308.003 353.501,359.336 354.5,410.5C 355.377,413.258 356.544,415.924 358,418.5C 377.263,433.222 381.596,451.555 371,473.5C 354.606,493.445 335.44,496.612 313.5,483C 299.884,470.369 296.051,455.203 302,437.5C 305.513,429.652 310.846,423.319 318,418.5C 319.456,415.924 320.623,413.258 321.5,410.5C 322.499,360.003 322.832,309.336 322.5,258.5C 332.837,257.881 343.17,257.214 353.5,256.5 Z"/></g>
<g><path style="opacity:0.957" fill="#898fc2" d="M 928.5,254.5 C 929.924,256.515 930.59,258.848 930.5,261.5C 929.076,259.485 928.41,257.152 928.5,254.5 Z"/></g>
<g><path style="opacity:1" fill="#2c3a90" d="M 295.5,260.5 C 295.5,308.5 295.5,356.5 295.5,404.5C 294.103,413.56 288.77,418.56 279.5,419.5C 269.763,418.43 264.43,413.097 263.5,403.5C 263.5,356.5 263.5,309.5 263.5,262.5C 274.187,262.118 284.854,261.451 295.5,260.5 Z"/></g>
<g><path style="opacity:1" fill="#2d3a91" d="M 237.5,409.5 C 238.319,411.772 238.985,414.106 239.5,416.5C 239.427,418.027 240.094,419.027 241.5,419.5C 257.606,430.983 263.106,446.316 258,465.5C 247.824,487.503 230.991,495.337 207.5,489C 185.682,478.241 178.182,461.075 185,437.5C 188.513,429.652 193.846,423.319 201,418.5C 202.845,416.133 204.011,413.467 204.5,410.5C 205.499,362.67 205.832,314.67 205.5,266.5C 215.881,266.354 226.214,265.687 236.5,264.5C 236.168,313.003 236.501,361.336 237.5,409.5 Z"/></g>
<g><path style="opacity:0.604" fill="#9ba1cc" d="M 930.5,261.5 C 931.924,263.515 932.59,265.848 932.5,268.5C 931.076,266.485 930.41,264.152 930.5,261.5 Z"/></g>
<g><path style="opacity:1" fill="#2b8bc7" d="M 1047.5,273.5 C 1081.04,269.736 1109.87,279.402 1134,302.5C 1160.07,335.473 1165.07,371.473 1149,410.5C 1130.39,444.659 1101.39,461.992 1062,462.5C 1010.69,460.177 979.027,434.177 967,384.5C 961.13,342.088 975.963,309.255 1011.5,286C 1022.92,279.772 1034.92,275.605 1047.5,273.5 Z M 1061.5,310.5 C 1101.26,315.102 1119.76,337.436 1117,377.5C 1110.4,406.764 1092.06,422.431 1062,424.5C 1034.45,422.732 1016.45,408.732 1008,382.5C 1002.03,351.691 1012.86,329.191 1040.5,315C 1047.42,312.463 1054.42,310.963 1061.5,310.5 Z"/></g>
<g><path style="opacity:1" fill="#298bc7" d="M 556.5,276.5 C 596.505,274.752 626.339,291.085 646,325.5C 660.564,359.753 657.23,392.086 636,422.5C 608.819,451.888 575.653,461.722 536.5,452C 499.872,440.37 478.705,415.537 473,377.5C 469.366,335.254 486.199,304.42 523.5,285C 534.264,280.727 545.264,277.893 556.5,276.5 Z M 556.5,320.5 C 588.026,319.53 605.36,334.697 608.5,366C 604.317,400.441 584.984,415.108 550.5,410C 533.106,403.935 522.94,391.768 520,373.5C 517.366,345.387 529.533,327.72 556.5,320.5 Z"/></g>
<g><path style="opacity:0.494" fill="#a7add3" d="M 864.5,376.5 C 864.573,378.027 863.906,379.027 862.5,379.5C 862.427,377.973 863.094,376.973 864.5,376.5 Z"/></g>
<g><path style="opacity:0.753" fill="#a7acd3" d="M 860.5,381.5 C 860.573,383.027 859.906,384.027 858.5,384.5C 858.427,382.973 859.094,381.973 860.5,381.5 Z"/></g>
<g><path style="opacity:0.69" fill="#9aa0cc" d="M 855.5,387.5 C 854.415,389.587 852.749,390.92 850.5,391.5C 851.585,389.413 853.251,388.08 855.5,387.5 Z"/></g>
<g><path style="opacity:0.773" fill="#a0a6cf" d="M 850.5,391.5 C 850.027,392.906 849.027,393.573 847.5,393.5C 847.973,392.094 848.973,391.427 850.5,391.5 Z"/></g>
<g><path style="opacity:0.937" fill="#858cc1" d="M 829.5,402.5 C 827.485,403.924 825.152,404.59 822.5,404.5C 824.515,403.076 826.848,402.41 829.5,402.5 Z"/></g>
<g><path style="opacity:0.753" fill="#8891c3" d="M 750.5,219.5 C 750.5,282.167 750.5,344.833 750.5,407.5C 765.5,407.5 780.5,407.5 795.5,407.5C 780.342,408.496 765.009,408.83 749.5,408.5C 749.168,345.331 749.501,282.331 750.5,219.5 Z"/></g>
<g><path style="opacity:0.647" fill="#9498c6" d="M 239.5,416.5 C 240.906,416.973 241.573,417.973 241.5,419.5C 240.094,419.027 239.427,418.027 239.5,416.5 Z"/></g>
<g><path style="opacity:0.251" fill="#bec3de" d="M 694.5,172.5 C 694.5,266.5 694.5,360.5 694.5,454.5C 729.833,454.5 765.167,454.5 800.5,454.5C 765.004,455.498 729.337,455.832 693.5,455.5C 693.167,360.999 693.501,266.665 694.5,172.5 Z"/></g>
</svg>
