<?xml version="1.0" encoding="UTF-8"?>
<!DOCTYPE svg PUBLIC "-//W3C//DTD SVG 1.1//EN" "http://www.w3.org/Graphics/SVG/1.1/DTD/svg11.dtd">
<svg xmlns="http://www.w3.org/2000/svg" version="1.1" width="558px" height="494px" style="shape-rendering:geometricPrecision; text-rendering:geometricPrecision; image-rendering:optimizeQuality; fill-rule:evenodd; clip-rule:evenodd" xmlns:xlink="http://www.w3.org/1999/xlink">
<g><path style="opacity:1" fill="#35ace1" d="M 88.5,26.5 C 61.4517,28.1701 34.4517,30.1701 7.5,32.5C 16.0956,8.78573 32.7622,-0.0475995 57.5,6C 59.9494,6.72457 62.2827,7.72457 64.5,9C 70.1611,13.6615 75.4945,18.6615 80.5,24C 83.3102,24.7823 85.9768,25.6156 88.5,26.5 Z"/></g>
<g><path style="opacity:1" fill="#339cd6" d="M 544.5,22.5 C 550.207,31.1173 551.874,40.4506 549.5,50.5C 549.826,46.1161 549.492,41.7828 548.5,37.5C 454.882,44.6156 361.215,51.4489 267.5,58C 325.499,58.5 383.499,58.6667 441.5,58.5C 451.348,58.1729 461.014,58.5062 470.5,59.5C 342.166,59.3333 213.833,59.5 85.5,60C 83.0506,60.7246 80.7173,61.7246 78.5,63C 63.2403,82.4793 44.5737,86.4793 22.5,75C 17.1919,71.198 13.1919,66.3647 10.5,60.5C 188.512,47.0706 366.512,34.4039 544.5,22.5 Z"/></g>
<g><path style="opacity:1" fill="#28a5dd" d="M 88.5,26.5 C 151.167,26.5 213.833,26.5 276.5,26.5C 188.012,33.3209 99.3451,39.8209 10.5,46C 8.94186,46.21 7.60853,46.71 6.5,47.5C 5.2835,42.4341 5.61684,37.4341 7.5,32.5C 34.4517,30.1701 61.4517,28.1701 88.5,26.5 Z"/></g>
<g><path style="opacity:1" fill="#2a9fd9" d="M 544.5,22.5 C 366.512,34.4039 188.512,47.0706 10.5,60.5C 7.98713,56.6222 6.6538,52.2888 6.5,47.5C 7.60853,46.71 8.94186,46.21 10.5,46C 99.3451,39.8209 188.012,33.3209 276.5,26.5C 340.501,26.6667 404.501,26.5 468.5,26C 471.754,25.7497 474.754,24.7497 477.5,23C 492.582,3.25008 511.249,-1.08325 533.5,10C 538.457,13.1181 542.124,17.2848 544.5,22.5 Z"/></g>
<g><path style="opacity:1" fill="#2893d0" d="M 549.5,50.5 C 549.768,52.099 549.434,53.4324 548.5,54.5C 548.5,53.1667 548.5,51.8333 548.5,50.5C 512.653,52.7505 476.986,55.4172 441.5,58.5C 383.499,58.6667 325.499,58.5 267.5,58C 361.215,51.4489 454.882,44.6156 548.5,37.5C 549.492,41.7828 549.826,46.1161 549.5,50.5 Z"/></g>
<g><path style="opacity:1" fill="#318ecc" d="M 548.5,54.5 C 542.518,72.0082 530.185,81.0082 511.5,81.5C 504.396,81.2243 497.73,79.391 491.5,76C 486.199,71.7002 481.199,67.0336 476.5,62C 474.512,61.0617 472.512,60.2283 470.5,59.5C 461.014,58.5062 451.348,58.1729 441.5,58.5C 476.986,55.4172 512.653,52.7505 548.5,50.5C 548.5,51.8333 548.5,53.1667 548.5,54.5 Z"/></g>
<g><path style="opacity:1" fill="#308cca" d="M 462.5,85.5 C 431.498,85.3334 400.498,85.5 369.5,86C 276.167,92.6667 182.833,99.3333 89.5,106C 87.6183,106.198 85.9516,106.698 84.5,107.5C 80.8139,97.0287 84.1472,89.5287 94.5,85C 217.334,84.1673 340.001,84.334 462.5,85.5 Z"/></g>
<g><path style="opacity:1" fill="#2885c6" d="M 462.5,85.5 C 463.492,85.3284 464.158,85.6618 464.5,86.5C 343.485,94.7153 222.485,103.215 101.5,112C 97.0442,111.898 93.0442,112.732 89.5,114.5C 86.6769,113.008 85.0102,110.674 84.5,107.5C 85.9516,106.698 87.6183,106.198 89.5,106C 182.833,99.3333 276.167,92.6667 369.5,86C 400.498,85.5 431.498,85.3334 462.5,85.5 Z"/></g>
<g><path style="opacity:1" fill="#2f83c4" d="M 464.5,86.5 C 470.206,88.8987 473.206,93.232 473.5,99.5C 471.422,98.8991 469.255,98.5657 467,98.5C 385.839,104.404 304.672,110.238 223.5,116C 232.343,116.17 241.01,116.67 249.5,117.5C 197.832,117.667 146.166,117.5 94.5,117C 92.5483,116.634 90.8816,115.801 89.5,114.5C 93.0442,112.732 97.0442,111.898 101.5,112C 222.485,103.215 343.485,94.7153 464.5,86.5 Z"/></g>
<g><path style="opacity:1" fill="#4182c2" d="M 473.5,99.5 C 474.025,107.946 470.359,113.779 462.5,117C 410.5,117.333 358.5,117.667 306.5,118C 299.76,120.688 295.76,125.521 294.5,132.5C 294.5,131.167 294.5,129.833 294.5,128.5C 283.854,129.451 273.187,130.118 262.5,130.5C 262.5,139.833 262.5,149.167 262.5,158.5C 262.5,168.833 262.5,179.167 262.5,189.5C 262.5,198.833 262.5,208.167 262.5,217.5C 262.5,227.5 262.5,237.5 262.5,247.5C 262.5,252.167 262.5,256.833 262.5,261.5C 262.5,309.5 262.5,357.5 262.5,405.5C 261.667,313.668 261.167,221.668 261,129.5C 258.981,123.65 255.148,119.65 249.5,117.5C 241.01,116.67 232.343,116.17 223.5,116C 304.672,110.238 385.839,104.404 467,98.5C 469.255,98.5657 471.422,98.8991 473.5,99.5 Z"/></g>
<g><path style="opacity:1" fill="#3b84c4" d="M 71.5,131.5 C 70.0328,131.106 68.5328,130.773 67,130.5C 49.8501,132.046 32.6834,133.38 15.5,134.5C 19.1058,129.086 24.1058,125.253 30.5,123C 45.9328,117.986 59.5995,120.819 71.5,131.5 Z"/></g>
<g><path style="opacity:1" fill="#4583c3" d="M 71.5,131.5 C 74.7741,136.27 79.1075,139.77 84.5,142C 130.668,142.167 176.668,142.667 222.5,143.5C 183.499,143.333 144.499,143.5 105.5,144C 72.8503,146.499 40.1836,148.665 7.5,150.5C 7.73731,151.791 7.40397,152.791 6.5,153.5C 7.11547,145.939 10.1155,139.606 15.5,134.5C 32.6834,133.38 49.8501,132.046 67,130.5C 68.5328,130.773 70.0328,131.106 71.5,131.5 Z"/></g>
<g><path style="opacity:1" fill="#2a67b1" d="M 544.5,139.5 C 547.564,142.824 549.397,146.824 550,151.5C 550.816,156.684 550.65,161.684 549.5,166.5C 549.824,162.445 549.491,158.445 548.5,154.5C 472.499,160.167 396.499,165.833 320.5,171.5C 320.178,165.642 320.511,159.975 321.5,154.5C 395.967,149.156 470.3,144.156 544.5,139.5 Z"/></g>
<g><path style="opacity:1" fill="#2a73b9" d="M 222.5,143.5 C 226.019,143.259 228.685,144.593 230.5,147.5C 155.794,152.455 81.1269,157.789 6.5,163.5C 5.30002,160.302 5.30002,156.969 6.5,153.5C 7.40397,152.791 7.73731,151.791 7.5,150.5C 40.1836,148.665 72.8503,146.499 105.5,144C 144.499,143.5 183.499,143.333 222.5,143.5 Z"/></g>
<g><path style="opacity:1" fill="#3d75b9" d="M 544.5,139.5 C 470.3,144.156 395.967,149.156 321.5,154.5C 322.985,148.184 326.985,144.351 333.5,143C 379.833,142.667 426.167,142.333 472.5,142C 474.5,141 476.5,140 478.5,139C 492.94,120.224 510.94,115.891 532.5,126C 537.787,129.448 541.787,133.948 544.5,139.5 Z"/></g>
<g><path style="opacity:1" fill="#296fb6" d="M 294.5,132.5 C 294.5,140.5 294.5,148.5 294.5,156.5C 283.862,157.546 273.195,158.212 262.5,158.5C 262.5,149.167 262.5,139.833 262.5,130.5C 273.187,130.118 283.854,129.451 294.5,128.5C 294.5,129.833 294.5,131.167 294.5,132.5 Z"/></g>
<g><path style="opacity:1" fill="#2a6db5" d="M 230.5,147.5 C 233.682,149.193 235.348,151.859 235.5,155.5C 235.859,157.766 235.192,159.599 233.5,161C 163.5,166 93.5,171 23.5,176C 19.0442,175.898 15.0442,176.732 11.5,178.5C 8.06822,174.205 6.40155,169.205 6.5,163.5C 81.1269,157.789 155.794,152.455 230.5,147.5 Z"/></g>
<g><path style="opacity:1" fill="#3c68b0" d="M 549.5,166.5 C 549.768,168.099 549.434,169.432 548.5,170.5C 548.631,169.761 548.464,169.094 548,168.5C 519.914,170.971 491.747,173.137 463.5,175C 466.036,175.186 468.369,175.686 470.5,176.5C 435.165,176.333 399.832,176.5 364.5,177C 359.333,178.833 355.833,182.333 354,187.5C 353.5,261.499 353.333,335.499 353.5,409.5C 352.501,358.336 352.168,307.003 352.5,255.5C 352.5,250.833 352.5,246.167 352.5,241.5C 352.5,231.5 352.5,221.5 352.5,211.5C 352.5,203.833 352.5,196.167 352.5,188.5C 341.833,189.167 331.167,189.833 320.5,190.5C 320.5,184.167 320.5,177.833 320.5,171.5C 396.499,165.833 472.499,160.167 548.5,154.5C 549.491,158.445 549.824,162.445 549.5,166.5 Z"/></g>
<g><path style="opacity:1" fill="#3c6db4" d="M 235.5,155.5 C 236.499,239.998 236.833,324.665 236.5,409.5C 235.501,361.003 235.168,312.336 235.5,263.5C 235.5,258.833 235.5,254.167 235.5,249.5C 235.5,239.5 235.5,229.5 235.5,219.5C 235.5,210.167 235.5,200.833 235.5,191.5C 225.156,192.025 214.823,192.691 204.5,193.5C 204.5,202.833 204.5,212.167 204.5,221.5C 204.5,231.5 204.5,241.5 204.5,251.5C 204.817,255.702 204.483,259.702 203.5,263.5C 203.667,239.164 203.5,214.831 203,190.5C 202.116,183.951 198.616,179.451 192.5,177C 156.5,176.333 120.5,176.333 84.5,177C 82.7536,177.471 81.087,178.138 79.5,179C 64.9021,198.233 46.5687,202.9 24.5,193C 18.8819,189.221 14.5486,184.387 11.5,178.5C 15.0442,176.732 19.0442,175.898 23.5,176C 93.5,171 163.5,166 233.5,161C 235.192,159.599 235.859,157.766 235.5,155.5 Z"/></g>
<g><path style="opacity:1" fill="#2962ad" d="M 294.5,156.5 C 294.5,166.833 294.5,177.167 294.5,187.5C 283.805,187.788 273.138,188.454 262.5,189.5C 262.5,179.167 262.5,168.833 262.5,158.5C 273.195,158.212 283.862,157.546 294.5,156.5 Z"/></g>
<g><path style="opacity:1" fill="#345da9" d="M 548.5,170.5 C 544.684,184.482 535.684,193.315 521.5,197C 503.398,200.746 489.065,195.079 478.5,180C 476.133,178.155 473.467,176.989 470.5,176.5C 468.369,175.686 466.036,175.186 463.5,175C 491.747,173.137 519.914,170.971 548,168.5C 548.464,169.094 548.631,169.761 548.5,170.5 Z"/></g>
<g><path style="opacity:1" fill="#2a55a4" d="M 352.5,211.5 C 341.796,211.693 331.129,212.36 320.5,213.5C 320.5,205.833 320.5,198.167 320.5,190.5C 331.167,189.833 341.833,189.167 352.5,188.5C 352.5,196.167 352.5,203.833 352.5,211.5 Z"/></g>
<g><path style="opacity:1" fill="#2a56a5" d="M 294.5,187.5 C 294.5,196.833 294.5,206.167 294.5,215.5C 283.813,215.882 273.146,216.549 262.5,217.5C 262.5,208.167 262.5,198.833 262.5,189.5C 273.138,188.454 283.805,187.788 294.5,187.5 Z"/></g>
<g><path style="opacity:1" fill="#2a56a5" d="M 235.5,219.5 C 225.163,220.119 214.83,220.786 204.5,221.5C 204.5,212.167 204.5,202.833 204.5,193.5C 214.823,192.691 225.156,192.025 235.5,191.5C 235.5,200.833 235.5,210.167 235.5,219.5 Z"/></g>
<g><path style="opacity:1" fill="#2a499c" d="M 352.5,211.5 C 352.5,221.5 352.5,231.5 352.5,241.5C 341.84,242.261 331.173,242.928 320.5,243.5C 320.5,233.5 320.5,223.5 320.5,213.5C 331.129,212.36 341.796,211.693 352.5,211.5 Z"/></g>
<g><path style="opacity:1" fill="#2a499c" d="M 294.5,215.5 C 294.5,225.5 294.5,235.5 294.5,245.5C 283.854,246.451 273.187,247.118 262.5,247.5C 262.5,237.5 262.5,227.5 262.5,217.5C 273.146,216.549 283.813,215.882 294.5,215.5 Z"/></g>
<g><path style="opacity:1" fill="#2a499c" d="M 235.5,219.5 C 235.5,229.5 235.5,239.5 235.5,249.5C 225.214,250.687 214.881,251.354 204.5,251.5C 204.5,241.5 204.5,231.5 204.5,221.5C 214.83,220.786 225.163,220.119 235.5,219.5 Z"/></g>
<g><path style="opacity:1" fill="#2b4196" d="M 352.5,241.5 C 352.5,246.167 352.5,250.833 352.5,255.5C 341.84,256.261 331.173,256.928 320.5,257.5C 320.5,252.833 320.5,248.167 320.5,243.5C 331.173,242.928 341.84,242.261 352.5,241.5 Z"/></g>
<g><path style="opacity:1" fill="#2b4196" d="M 294.5,245.5 C 294.5,250.167 294.5,254.833 294.5,259.5C 283.854,260.451 273.187,261.118 262.5,261.5C 262.5,256.833 262.5,252.167 262.5,247.5C 273.187,247.118 283.854,246.451 294.5,245.5 Z"/></g>
<g><path style="opacity:1" fill="#324598" d="M 235.5,249.5 C 235.5,254.167 235.5,258.833 235.5,263.5C 225.214,264.687 214.881,265.354 204.5,265.5C 204.832,313.336 204.499,361.003 203.5,408.5C 203.5,360.167 203.5,311.833 203.5,263.5C 204.483,259.702 204.817,255.702 204.5,251.5C 214.881,251.354 225.214,250.687 235.5,249.5 Z"/></g>
<g><path style="opacity:1" fill="#2e3a91" d="M 352.5,255.5 C 352.168,307.003 352.501,358.336 353.5,409.5C 354.03,411.924 354.864,414.257 356,416.5C 376.136,431.841 380.469,450.841 369,473.5C 358.219,487.743 344.053,492.91 326.5,489C 322.213,488.19 318.546,486.357 315.5,483.5C 315.027,482.094 314.027,481.427 312.5,481.5C 300.029,470.983 295.529,457.649 299,441.5C 301.586,431.577 307.253,423.911 316,418.5C 318.315,415.223 319.649,411.556 320,407.5C 320.5,357.501 320.667,307.501 320.5,257.5C 331.173,256.928 341.84,256.261 352.5,255.5 Z"/></g>
<g><path style="opacity:1" fill="#2c3a90" d="M 294.5,259.5 C 294.667,308.501 294.5,357.501 294,406.5C 288.953,417.478 280.787,420.644 269.5,416C 265.699,413.386 263.366,409.886 262.5,405.5C 262.5,357.5 262.5,309.5 262.5,261.5C 273.187,261.118 283.854,260.451 294.5,259.5 Z"/></g>
<g><path style="opacity:1" fill="#2e3a91" d="M 235.5,263.5 C 235.168,312.336 235.501,361.003 236.5,409.5C 236.989,412.467 238.155,415.133 240,417.5C 257.526,430.75 262.526,447.75 255,468.5C 244.745,486.041 229.578,492.875 209.5,489C 206.524,488.295 203.858,487.129 201.5,485.5C 201.027,484.094 200.027,483.427 198.5,483.5C 198.027,482.094 197.027,481.427 195.5,481.5C 179.705,466.732 176.872,449.732 187,430.5C 190.376,425.623 194.543,421.623 199.5,418.5C 200.906,418.027 201.573,417.027 201.5,415.5C 202.015,413.106 202.681,410.772 203.5,408.5C 204.499,361.003 204.832,313.336 204.5,265.5C 214.881,265.354 225.214,264.687 235.5,263.5 Z"/></g>
<g><path style="opacity:0.608" fill="#9498c6" d="M 201.5,415.5 C 201.573,417.027 200.906,418.027 199.5,418.5C 199.427,416.973 200.094,415.973 201.5,415.5 Z"/></g>
<g><path style="opacity:0.541" fill="#a0a3cd" d="M 195.5,481.5 C 197.027,481.427 198.027,482.094 198.5,483.5C 196.973,483.573 195.973,482.906 195.5,481.5 Z"/></g>
<g><path style="opacity:0.663" fill="#8e92c3" d="M 312.5,481.5 C 314.027,481.427 315.027,482.094 315.5,483.5C 313.973,483.573 312.973,482.906 312.5,481.5 Z"/></g>
<g><path style="opacity:0.537" fill="#9ea2cb" d="M 198.5,483.5 C 200.027,483.427 201.027,484.094 201.5,485.5C 199.973,485.573 198.973,484.906 198.5,483.5 Z"/></g>
</svg>
